Coordinates
version=1
nRows=25
nColumns=28
inDegrees=yes

Units are S.I. units (second, meters, Newtons, ...)
If the header above contains a line with 'inDegrees', this indicates whether rotational values are in degrees (yes) or radians (no).

endheader
time	pelvis_tilt	pelvis_list	pelvis_rotation	pelvis_tx	pelvis_ty	pelvis_tz	hip_flexion_r	hip_adduction_r	hip_rotation_r	knee_angle_r	knee_angle_r_ie	knee_angle_r_vv	ankle_angle_r	subtalar_angle_r	mtp_angle_r	hip_flexion_l	hip_adduction_l	hip_rotation_l	knee_angle_l	knee_angle_l_ie	knee_angle_l_vv	ankle_angle_l	subtalar_angle_l	mtp_angle_l	lumbar_extension	lumbar_bending	lumbar_rotation
      1.35000000	    -12.27094689	     -1.39120902	     -3.00112017	      0.33701285	      0.70165627	      0.41254801	     61.85852430	      1.87483367	     -0.00226124	    -79.60085945	    -13.72145348	     -2.63793773	     41.74715785	      6.90103498	      0.00000000	     62.91664638	     -7.27093687	     -0.35438414	    -79.64075195	      7.13697166	     -1.70403060	     46.72165121	     17.31816505	      0.00000000	    -34.26876283	      1.69094189	      3.77991565
      1.35500000	    -11.70290631	     -1.51712624	     -2.95923017	      0.34013894	      0.70809342	      0.41237657	     60.30661221	      1.76468542	     -0.44482214	    -78.37550789	    -13.72041963	     -2.84165937	     41.63363364	      7.09717641	      0.00000000	     61.40418675	     -7.37178507	     -0.51326154	    -78.54665469	      7.07598509	     -1.67825726	     46.54118556	     17.32874270	      0.00000000	    -34.12080924	      1.82217476	      3.87038936
      1.36000000	    -11.10310417	     -1.61321460	     -2.92082780	      0.34338198	      0.71462295	      0.41219230	     58.71080924	      1.62841371	     -0.84958615	    -77.14775600	    -13.65073261	     -3.01546303	     41.49841791	      7.30905036	      0.00000000	     59.83567836	     -7.45299647	     -0.71015696	    -77.42410192	      7.02863888	     -1.64229784	     46.31905139	     17.34498524	      0.00000000	    -33.97676186	      1.91695915	      3.92977534
      1.36500000	    -10.47440336	     -1.67526989	     -2.87261196	      0.34674498	      0.72125156	      0.41195103	     57.07309478	      1.44603997	     -1.26069050	    -75.90641632	    -13.53247309	     -3.19984639	     41.33970692	      7.59362046	      0.00000000	     58.21347341	     -7.49695892	     -0.95926906	    -76.26894175	      6.93385886	     -1.57888504	     46.06351047	     17.37457333	      0.00000000	    -33.83264446	      1.99468459	      3.97874544
      1.37000000	     -9.80666519	     -1.71449496	     -2.85894172	      0.35022929	      0.72799715	      0.41173870	     55.38757712	      1.27110151	     -1.57675803	    -74.67127374	    -13.40303650	     -3.31205967	     41.15161820	      7.84868793	      0.00000000	     56.51985422	     -7.55627344	     -1.23738132	    -75.08266343	      6.85788118	     -1.54151506	     45.77563909	     17.38389295	      0.00000000	    -33.69841772	      2.04087968	      4.03659991
      1.37500000	     -9.10540635	     -1.74902492	     -2.84917124	      0.35381683	      0.73485107	      0.41150783	     53.65463062	      1.08704681	     -1.80507875	    -73.43671733	    -13.25670133	     -3.31779518	     40.91794063	      8.00731269	      0.00000000	     54.77360957	     -7.60826004	     -1.50327358	    -73.87228590	      6.85105247	     -1.53690537	     45.46586937	     17.39031596	      0.00000000	    -33.57983003	      2.08625455	      4.12579039
      1.38000000	     -8.39414176	     -1.78849757	     -2.84134342	      0.35747954	      0.74176168	      0.41128328	     51.90527656	      0.90315461	     -2.03970430	    -72.19264945	    -13.07015890	     -3.30965199	     40.62069362	      8.17309504	      0.00000000	     53.00594127	     -7.66408909	     -1.79757908	    -72.63505370	      6.81968697	     -1.50559809	     45.10935099	     17.42412178	      0.00000000	    -33.44575340	      2.13593738	      4.20429851
      1.38500000	     -7.68237147	     -1.83173183	     -2.84160321	      0.36118658	      0.74870164	      0.41104753	     50.15115864	      0.72235816	     -2.25807573	    -70.92882993	    -12.87559397	     -3.26914391	     40.26313941	      8.33037092	      0.00000000	     51.23474273	     -7.72323346	     -2.11631586	    -71.38462225	      6.79460386	     -1.46818758	     44.70812903	     17.46060265	      0.00000000	    -33.29292324	      2.19633558	      4.29075715
      1.39000000	     -6.98483487	     -1.88188054	     -2.84944357	      0.36491161	      0.75564649	      0.41081421	     48.41322424	      0.55050892	     -2.49423445	    -69.64869064	    -12.67500530	     -3.22844998	     39.84811848	      8.48523662	      0.00000000	     49.47628925	     -7.78805212	     -2.46384745	    -70.10967451	      6.77666295	     -1.41376564	     44.26165680	     17.49985223	      0.00000000	    -33.10572978	      2.26896392	      4.38576140
      1.39500000	     -6.30485734	     -1.95656893	     -2.86539142	      0.36865145	      0.76260939	      0.41059814	     46.68616558	      0.40740130	     -2.82139254	    -68.31731234	    -12.42518033	     -3.25415566	     39.37943074	      8.66234646	      0.00000000	     47.73844878	     -7.87953226	     -2.86787642	    -68.81786145	      6.73415112	     -1.31130760	     43.78133960	     17.54519247	      0.00000000	    -32.88248932	      2.36958041	      4.46907288
      1.40000000	     -5.63333949	     -2.03929580	     -2.86602362	      0.37240649	      0.76963842	      0.41035217	     44.96853483	      0.26258259	     -3.22890137	    -66.96411487	    -12.19380639	     -3.31947673	     38.83465777	      8.82152027	      0.00000000	     45.99983740	     -7.95968973	     -3.22973333	    -67.47900124	      6.75137597	     -1.25693368	     43.22880634	     17.57972426	      0.00000000	    -32.63721302	      2.49495003	      4.56261342
      1.40500000	     -4.95849398	     -2.14284714	     -2.83910089	      0.37618468	      0.77678723	      0.41007187	     43.22906158	      0.12048808	     -3.82111215	    -65.53481617	    -11.90272898	     -3.50658772	     38.22473562	      9.00005826	      0.00000000	     44.25280766	     -8.03775701	     -3.57683282	    -66.10884528	      6.78034445	     -1.20707252	     42.64162739	     17.62243506	      0.00000000	    -32.38759365	      2.65369922	      4.64974204
      1.41000000	     -4.27702434	     -2.25423984	     -2.78738163	      0.37999207	      0.78408993	      0.40974887	     41.46987138	     -0.02552173	     -4.56443825	    -64.05452825	    -11.56319978	     -3.78489945	     37.53976872	      9.17643814	      0.00000000	     42.47603373	     -8.10530308	     -3.85652712	    -64.67933079	      6.84670490	     -1.23076898	     42.00117221	     17.65439805	      0.00000000	    -32.13651564	      2.83957014	      4.72450437
      1.41500000	     -3.58190667	     -2.36496801	     -2.72095466	      0.38382972	      0.79158844	      0.40941593	     39.67106170	     -0.17168372	     -5.38838405	    -62.50988971	    -11.19580974	     -4.09338659	     36.78795862	      9.32872457	      0.00000000	     40.64936986	     -8.16694453	     -4.05676811	    -63.18188750	      6.95919746	     -1.35100144	     41.31471671	     17.66331112	      0.00000000	    -31.89382230	      3.02614690	      4.79014490
      1.42000000	     -2.86713679	     -2.46078272	     -2.65228968	      0.38768647	      0.79931299	      0.40906953	     37.81527303	     -0.32604055	     -6.19080838	    -60.89327605	    -10.87596435	     -4.34066745	     35.99207120	      9.43155660	      0.00000000	     38.75386642	     -8.21439724	     -4.21650228	    -61.59410693	      7.11139324	     -1.55029558	     40.58820381	     17.64527635	      0.00000000	    -31.67514437	      3.20630936	      4.89687411
      1.42500000	     -2.16907530	     -2.55935221	     -2.55518062	      0.39157045	      0.80722853	      0.40868216	     35.91808973	     -0.49324118	     -7.00142569	    -59.24969547	     -9.77460153	     -4.50715663	     34.96780969	      8.61422244	      0.00000000	     36.84398647	     -8.24924495	     -4.34472627	    -59.93061250	      7.00407211	     -1.76557563	     39.69630686	     17.31960234	      0.00000000	    -31.42637680	      3.39596127	      4.95061083
      1.43000000	     -1.44970306	     -2.62861004	     -2.48606232	      0.39547320	      0.81539905	      0.40832472	     33.95355037	     -0.66377548	     -7.59261396	    -57.47301453	     -9.57122754	     -4.47485733	     34.05612785	      8.72740540	      0.00000000	     34.84251941	     -8.27972454	     -4.69260248	    -58.13874987	      7.09848576	     -1.85958551	     38.84286480	     17.36219489	      0.00000000	    -31.20537145	      3.54306355	      5.03363551
      1.43500000	     -0.76204360	     -2.70527712	     -2.40000344	      0.39938786	      0.82376040	      0.40792480	     31.95700238	     -0.83545606	     -8.25584778	    -55.60427221	     -8.92532240	     -4.42933212	     32.99990517	      8.42247971	      0.00000000	     32.83614760	     -8.30880724	     -5.30675877	    -56.22033579	      6.71105434	     -1.72216047	     37.76750373	     16.97746515	      0.00000000	    -30.94758465	      3.70751380	      5.09859782
      1.44000000	     -0.03173982	     -2.76653588	     -2.31013033	      0.40329915	      0.83242702	      0.40750993	     29.85892150	     -1.02057851	     -8.71324974	    -53.62892188	     -8.70869467	     -4.17195235	     31.89310041	      8.52140205	      0.00000000	     30.72362145	     -8.32958707	     -5.95901866	    -54.18906849	      6.57440676	     -1.58907644	     36.72539187	     17.11843441	      0.00000000	    -30.75322358	      3.85188557	      5.18813752
      1.44500000	      0.66991496	     -2.80951011	     -2.23844229	      0.40720476	      0.84131732	      0.40711517	     27.73265971	     -1.20006526	     -9.14363841	    -51.52533934	     -8.45357125	     -3.89620136	     30.67109613	      8.61145813	      0.00000000	     28.58538892	     -8.34642162	     -6.80707780	    -52.02410621	      6.29338262	     -1.34029123	     35.49137067	     17.24188248	      0.00000000	    -30.53362594	      3.96101685	      5.26455340
      1.45000000	      1.33399896	     -2.81385727	     -2.18751334	      0.41108307	      0.85042878	      0.40673932	     25.59338844	     -1.39669223	     -9.45650890	    -49.33134827	     -7.85360292	     -3.53602866	     29.18071858	      8.13145716	      0.00000000	     26.43647779	     -8.33372360	     -7.68666954	    -49.73058753	      4.98513740	     -1.10791232	     33.82473061	     16.11567559	      0.00000000	    -30.28645767	      4.01458409	      5.36194436
      1.45500000	      2.02721544	     -2.81818075	     -2.11728218	      0.41494151	      0.85985941	      0.40633837	     23.34048610	     -1.58673837	     -9.69684348	    -46.94364008	     -7.71638646	     -3.11885471	     27.68412394	      8.29776544	      0.00000000	     24.22724071	     -8.30509664	     -8.42916278	    -47.37817705	      4.70807326	     -0.97438535	     32.25278296	     16.34890862	      0.00000000	    -30.09666222	      4.07305631	      5.40277530
      1.46000000	      2.71001312	     -2.79762117	     -2.09491594	      0.41876536	      0.86956725	      0.40602097	     21.04725741	     -1.75616925	     -9.88503213	    -44.40078947	     -7.58416442	     -2.73971883	     25.95781740	      8.48763620	      0.00000000	     21.97281978	     -8.27206242	     -9.11178217	    -44.92773614	      4.38581487	     -0.94969998	     30.46407830	     16.48534753	      0.00000000	    -29.92312695	      4.07220574	      5.48206218
      1.46500000	      3.35244820	     -2.73297489	     -2.06627753	      0.42255535	      0.87949695	      0.40566903	     18.76596586	     -1.97011810	    -10.17838198	    -41.77164086	     -7.11898905	     -2.42900215	     23.92670583	      8.32280469	      0.00000000	     19.70497551	     -8.17008327	     -9.86025948	    -42.31375890	      2.51978817	     -0.87127260	     28.08424418	     14.71057171	      0.00000000	    -29.71820497	      4.02367810	      5.56728362
      1.47000000	      4.04469035	     -2.68115612	     -2.03136288	      0.42631821	      0.88977441	      0.40534597	     16.38175558	     -2.13937568	    -10.53801758	    -38.97882883	     -6.94041615	     -2.20114096	     21.69980095	      8.65920875	      0.00000000	     17.33067264	     -8.07280972	    -10.30343206	    -39.59306390	      2.40504770	     -1.04292273	     25.82532064	     14.86991126	      0.00000000	    -29.59855438	      3.98140316	      5.57820046
